/* XPM */
static char * C:\GitHub\crypto_node\bare_core\share\pixmaps\bitcoin16_xpm[] = {
"16 16 2 1",
" 	c None",
".	c #FF1177",
"     ......     ",
"   ..........   ",
"  .....  .....  ",
" ....      .... ",
" ...        ... ",
"...          ...",
"...   ....   ...",
"..    ....    ..",
"..    ....    ..",
"...   ....   ...",
"...          ...",
" ...        ... ",
" ....      .... ",
"  .....  .....  ",
"   ..........   ",
"     ......     "};
