/* XPM */
static char * C:\GitHub\crypto_node\bare_core\share\pixmaps\bitcoin32_xpm[] = {
"32 32 2 1",
" 	c None",
".	c #FF1177",
"            ........            ",
"         ..............         ",
"       ..................       ",
"      ....................      ",
"     ......................     ",
"    ........        ........    ",
"   .......            .......   ",
"  .......              .......  ",
"  ......                ......  ",
" ......                  ...... ",
" .....                    ..... ",
" .....         ..         ..... ",
".....        ......        .....",
".....       ........       .....",
".....       ........       .....",
".....      ..........      .....",
".....      ..........      .....",
".....       ........       .....",
".....       ........       .....",
".....        ......        .....",
" .....         ..         ..... ",
" .....                    ..... ",
" ......                  ...... ",
"  .....                  .....  ",
"  ......                ......  ",
"   .......            .......   ",
"    ........        ........    ",
"     ......................     ",
"      ....................      ",
"       ..................       ",
"         ..............         ",
"            ........            "};
