/* XPM */
static char * C:\GitHub\crypto_node\bare_core\share\pixmaps\bitcoin64_xpm[] = {
"64 64 2 1",
" 	c None",
".	c #FF1177",
"                           ..........                           ",
"                       ..................                       ",
"                    ........................                    ",
"                  ............................                  ",
"                ................................                ",
"              ....................................              ",
"             ......................................             ",
"            ........................................            ",
"          ............................................          ",
"         .....................    .....................         ",
"        .................              .................        ",
"        ..............                    ..............        ",
"       .............                        .............       ",
"      .............                          .............      ",
"     .............                            .............     ",
"     ...........                                ...........     ",
"    ...........                                  ...........    ",
"   ............                                  ............   ",
"   ...........                                    ...........   ",
"   ..........                                      ..........   ",
"  ..........                                        ..........  ",
"  ..........                                        ..........  ",
" ..........                                          .......... ",
" ..........                  ......                  .......... ",
" ..........                ..........                .......... ",
" .........                ............                ......... ",
"..........               ..............               ..........",
"..........              ................              ..........",
"..........              ................              ..........",
".........              ..................              .........",
".........              ..................              .........",
".........              ..................              .........",
".........              ..................              .........",
".........              ..................              .........",
".........              ..................              .........",
"..........             ..................             ..........",
"..........              ................              ..........",
"..........               ..............               ..........",
" .........               ..............               ......... ",
" ..........                ..........                .......... ",
" ..........                 ........                 .......... ",
" ..........                                          .......... ",
"  ..........                                        ..........  ",
"  ..........                                        ..........  ",
"   ..........                                      ..........   ",
"   ...........                                    ...........   ",
"   ............                                  ............   ",
"    ...........                                  ...........    ",
"     ...........                                ...........     ",
"     .............                            .............     ",
"      .............                          .............      ",
"       .............                        .............       ",
"       ...............                    ...............       ",
"        .................              .................        ",
"         ....................      ....................         ",
"          ............................................          ",
"           ..........................................           ",
"             ......................................             ",
"              ....................................              ",
"                ................................                ",
"                  ............................                  ",
"                    ........................                    ",
"                      ....................                      ",
"                           ..........                           "};
