/* XPM */
static char * C:\GitHub\crypto_node\bare_core\share\pixmaps\bitcoin128_xpm[] = {
"128 128 2 1",
" 	c None",
".	c #FF1177",
"                                                          ............                                                          ",
"                                                   ..........................                                                   ",
"                                               ..................................                                               ",
"                                            ........................................                                            ",
"                                         ..............................................                                         ",
"                                       ..................................................                                       ",
"                                    ........................................................                                    ",
"                                  ............................................................                                  ",
"                                 ..............................................................                                 ",
"                               ..................................................................                               ",
"                             ......................................................................                             ",
"                            ........................................................................                            ",
"                          ............................................................................                          ",
"                         ..............................................................................                         ",
"                        ................................................................................                        ",
"                      ....................................................................................                      ",
"                     ......................................................................................                     ",
"                    ........................................................................................                    ",
"                   ..........................................................................................                   ",
"                  ......................................                ......................................                  ",
"                 ..................................                          ..................................                 ",
"                ................................                                ................................                ",
"               ...............................                                    ...............................               ",
"               .............................                                        .............................               ",
"              ............................                                            ............................              ",
"             ...........................                                                ...........................             ",
"            ...........................                                                  ...........................            ",
"            .........................                                                      .........................            ",
"           .........................                                                        .........................           ",
"          .........................                                                          .........................          ",
"          .......................                                                              .......................          ",
"         .......................                                                                .......................         ",
"        .......................                                                                  .......................        ",
"        ......................                                                                    ......................        ",
"       .......................                                                                    .......................       ",
"       ......................                                                                      ......................       ",
"      ......................                                                                        ......................      ",
"      .....................                                                                          .....................      ",
"     .....................                                                                            .....................     ",
"     .....................                                                                            .....................     ",
"     ....................                                                                              ....................     ",
"    .....................                                                                              .....................    ",
"    ....................                                                                                ....................    ",
"   ....................                                                                                  ....................   ",
"   ....................                                                                                  ....................   ",
"   ....................                                                                                  ....................   ",
"  ....................                                     ..........                                     ....................  ",
"  ....................                                  ................                                  ....................  ",
"  ...................                                 ....................                                 ...................  ",
"  ...................                                ......................                                ...................  ",
" ....................                               ........................                               .................... ",
" ...................                               ..........................                               ................... ",
" ...................                              ............................                              ................... ",
" ...................                             ..............................                             ................... ",
" ...................                            ................................                            ................... ",
" ..................                             ................................                             .................. ",
"...................                            ..................................                            ...................",
"...................                            ..................................                            ...................",
"...................                           ....................................                           ...................",
"...................                           ....................................                           ...................",
"...................                           ....................................                           ...................",
"...................                           ....................................                           ...................",
"...................                           ....................................                           ...................",
"...................                           ....................................                           ...................",
"...................                           ....................................                           ...................",
"...................                           ....................................                           ...................",
"...................                           ....................................                           ...................",
"...................                           ....................................                           ...................",
"...................                           ....................................                           ...................",
"...................                           ....................................                           ...................",
"...................                            ..................................                            ...................",
"...................                            ..................................                            ...................",
" ..................                             ................................                             .................. ",
" ...................                            ................................                            ................... ",
" ...................                             ..............................                             ................... ",
" ...................                              ............................                              ................... ",
" ...................                              ............................                              ................... ",
" ....................                              ..........................                              .................... ",
"  ...................                                ......................                                ...................  ",
"  ...................                                 ....................                                 ...................  ",
"  ....................                                  ................                                  ....................  ",
"  ....................                                    ............                                    ....................  ",
"   ...................                                                                                    ...................   ",
"   ....................                                                                                  ....................   ",
"   ....................                                                                                  ....................   ",
"    ....................                                                                                ....................    ",
"    ....................                                                                                ....................    ",
"    .....................                                                                              .....................    ",
"     .....................                                                                            .....................     ",
"     .....................                                                                            .....................     ",
"      .....................                                                                          .....................      ",
"      ......................                                                                        ......................      ",
"       ......................                                                                      ......................       ",
"       ......................                                                                      ......................       ",
"        ......................                                                                    ......................        ",
"        .......................                                                                  .......................        ",
"         .......................                                                                .......................         ",
"         ........................                                                              ........................         ",
"          ........................                                                            ........................          ",
"           .........................                                                        .........................           ",
"           ..........................                                                      ..........................           ",
"            ..........................                                                    ..........................            ",
"             ...........................                                                ...........................             ",
"              ............................                                            ............................              ",
"              .............................                                          .............................              ",
"               ..............................                                      ..............................               ",
"                ................................                                ................................                ",
"                 ..................................                          ..................................                 ",
"                  .....................................                  .....................................                  ",
"                   ..........................................................................................                   ",
"                    ........................................................................................                    ",
"                     ......................................................................................                     ",
"                      ....................................................................................                      ",
"                        ................................................................................                        ",
"                         ..............................................................................                         ",
"                          ............................................................................                          ",
"                           ..........................................................................                           ",
"                             ......................................................................                             ",
"                               ..................................................................                               ",
"                                ................................................................                                ",
"                                  ............................................................                                  ",
"                                    ........................................................                                    ",
"                                      ....................................................                                      ",
"                                         ..............................................                                         ",
"                                           ..........................................                                           ",
"                                               ..................................                                               ",
"                                                   ..........................                                                   ",
"                                                         ..............                                                         "};
